<?xml version="1.0" standalone="no"?>
<!DOCTYPE svg PUBLIC "-//W3C//DTD SVG 20010904//EN"
 "http://www.w3.org/TR/2001/REC-SVG-20010904/DTD/svg10.dtd">
<svg version="1.0" xmlns="http://www.w3.org/2000/svg"
 width="297.000000pt" height="297.000000pt" viewBox="0 0 297.000000 297.000000"
 preserveAspectRatio="xMidYMid meet">
<metadata>
Created by potrace 1.11, written by Peter Selinger 2001-2013
</metadata>
<g transform="translate(0.000000,297.000000) scale(0.100000,-0.100000)"
fill="#000000" stroke="none">
<path d="M16 2513 c-11 -11 -6 -53 7 -55 6 0 17 -2 22 -3 6 -1 34 -5 63 -9
l52 -8 0 -521 c0 -400 -3 -528 -13 -547 -13 -26 -62 -55 -110 -65 -32 -6 -45
-29 -28 -49 10 -11 50 -15 190 -16 98 0 185 2 194 6 37 14 12 64 -31 64 -38 0
-92 30 -107 61 -13 23 -15 107 -14 511 0 523 -3 496 45 383 21 -49 115 -276
139 -335 120 -294 270 -649 281 -667 13 -21 37 -25 53 -7 5 5 59 131 121 279
62 149 139 331 170 405 31 74 83 199 116 278 l59 144 3 -414 3 -413 -28 -20
c-147 -107 -226 -243 -239 -408 -12 -153 39 -290 151 -403 146 -148 351 -198
543 -131 74 26 178 93 222 143 69 81 125 214 132 314 l4 45 107 1 c106 2 106
2 95 -20 -29 -55 -121 -212 -129 -220 -5 -6 -9 -12 -9 -16 0 -4 877 -6 888 -1
2 0 -5 13 -16 29 -10 15 -22 34 -25 42 -4 8 -17 31 -28 50 -12 19 -80 136
-151 260 -72 124 -151 261 -176 305 l-47 80 0 260 0 260 -498 1 c-274 1 -500
3 -502 6 -5 4 -8 129 -6 225 1 52 38 99 84 108 56 11 65 15 71 32 15 38 -7 42
-232 42 -119 1 -222 -3 -229 -7 -7 -4 -68 -140 -136 -302 -234 -558 -240 -572
-248 -558 -4 7 -55 128 -114 268 -58 140 -112 269 -120 285 -7 17 -39 91 -70
165 -31 74 -62 138 -68 142 -14 9 -432 10 -441 1z m409 -78 c7 -11 90 -207
185 -435 95 -228 181 -422 191 -431 18 -16 17 -20 -21 -105 -22 -49 -43 -88
-47 -87 -4 0 -47 95 -94 210 -48 114 -94 224 -102 243 -8 19 -65 157 -127 305
-62 149 -120 281 -130 295 l-18 25 76 0 c64 0 77 -3 87 -20z m1058 16 c4 0 -1
-13 -10 -28 -16 -24 -18 -66 -23 -428 l-5 -400 -29 -3 c-16 -2 -48 -10 -72
-17 -32 -10 -44 -10 -45 -2 -2 22 -5 872 -3 877 2 4 161 5 187 1z"/>
</g>
</svg>
